PathFileType	4	(X/Y/Z)	50_1_11_p1_0-358_filt_butterworth.trc
DataRate	CameraRate	NumFrames	NumMarkers	Units	OrigDataRate	OrigDataStartFrame	OrigNumFrames
60.0	60.0	5	27	m	60.0	0	358
Frame#	Time	RHip			RKnee			RAnkle			RBigToe			RSmallToe			RHeel			LHip			LKnee			LAnkle			LBigToe			LSmallToe			LHeel			Neck			Head			Nose			RShoulder			RElbow			RWrist			RThumb			RIndex			RPinky			LShoulder			LElbow			LWrist			LThumb			LIndex			LPinky			
		X1	Y1	Z1	X2	Y2	Z2	X3	Y3	Z3	X4	Y4	Z4	X5	Y5	Z5	X6	Y6	Z6	X7	Y7	Z7	X8	Y8	Z8	X9	Y9	Z9	X10	Y10	Z10	X11	Y11	Z11	X12	Y12	Z12	X13	Y13	Z13	X14	Y14	Z14	X15	Y15	Z15	X16	Y16	Z16	X17	Y17	Z17	X18	Y18	Z18	X19	Y19	Z19	X20	Y20	Z20	X21	Y21	Z21	X22	Y22	Z22	X23	Y23	Z23	X24	Y24	Z24	X25	Y25	Z25	X26	Y26	Z26	X27	Y27	Z27	
0	0.0	0.31212493974692157	0.6604537689902704	0.9321441050299561	0.2803704812079077	0.22082142831434937	0.9476715218356174	0.3061299326303974	-0.22466233005252695	0.9826822065077121	0.2516879995183793	-0.2120862174430401	0.8058877465082468	0.30967174836604844	-0.23530215646988184	0.8332859892395533	0.2821878271677803	-0.32151109511435444	1.080160100875246	0.08583716438507383	0.6353367491368765	0.9841892664315088	0.10455322135384777	0.2087210049174552	0.9887578173894251	0.08753508106833782	-0.2401846194001847	1.0039574750085742	0.10253001313302164	-0.21594958683517124	0.8351375800759145	0.048552047397710255	-0.23435405285949118	0.8708240010113083	0.09859366810650781	-0.3076222618690834	1.0529370316572908	0.19502518811208233	1.2385539852392449	0.976127227884181	0.20165178338072298	1.5006128201689275	0.9053074858817449	0.1870878496795233	1.3711051641438272	0.8386164753491991	0.3345660775967857	1.1632278795240205	0.9390259974688852	0.39050206860597214	0.9261875814326271	0.8661273238691093	0.23476277321816172	0.7592769048820485	0.7814057797899923	0.20032161540225546	0.6438818591742483	0.789657036340516	0.19070977102038056	0.644304457902378	0.7876347506110906	0.17889448066666505	0.644682832885072	0.7985844616705335	0.03962405638152679	1.1639614929050042	0.9773073739925798	0.011051005333899756	0.9277138370629299	0.9033201839972055	0.12586368801802528	0.7652148503828927	0.7274549916261324	0.20996591338597428	0.6808702930344417	0.7710628024298399	0.21081734972839458	0.6551260965568514	0.7691235179341588	0.17945466271971852	0.6445543826997183	0.7869119465845706	
1	0.0166666666666666	0.31100322136024927	0.6607353371592241	0.9308436382377937	0.28143654974524657	0.21913998389003558	0.9498312460739824	0.30611108212615484	-0.22406411911748017	0.9830170832787677	0.24770099708247018	-0.2069811925601541	0.7993172712205986	0.3102000818896272	-0.23475831130992872	0.8330721610586731	0.2825483360992659	-0.32204059603450197	1.081770587404151	0.08774206848622174	0.6368833393580254	0.9814342709892347	0.10450455613058296	0.20911162584352178	0.9886841291798053	0.08762720942288893	-0.2412234022726507	1.0040355267195153	0.1066321946533363	-0.21360979572691446	0.8288946866486279	0.04875093318040462	-0.2351816877697458	0.8692348515854159	0.0972271680372392	-0.30723607626125776	1.0516388657731974	0.194590178488997	1.23827165898581	0.9778742891097669	0.20157258284953947	1.5004063777307755	0.9076084817706415	0.18706785930516576	1.3711298601988786	0.8385358782905246	0.3363183001541397	1.1622711599215494	0.9391855453338243	0.39290029168991286	0.9244898437326903	0.8721069595844457	0.23466583930133264	0.7556832483758693	0.7808205564057944	0.20082660486871554	0.6443387424813517	0.7890881447220168	0.18944994109780133	0.6421296422642899	0.7932724153913167	0.17831417818468004	0.6445726970172083	0.7984984385131545	0.03972081306184608	1.162147647994101	0.9771707806513678	0.01037743599343975	0.9253675479779855	0.9050337111097655	0.12663554499535823	0.7632689769081228	0.7329911693744239	0.21208735136688517	0.6849362301338339	0.7652509653815898	0.21231709790504547	0.6573968999471107	0.7633207778627329	0.17933187170989176	0.6444178994278851	0.787002057559008	
2	0.0333333333333333	0.31024273399107444	0.6610335289951008	0.9300105883719822	0.2823027375919531	0.2177117509526753	0.9515992237885195	0.306096237725768	-0.22356114432625224	0.9832926878522016	0.24506778727652592	-0.20350852332673064	0.7948147295771425	0.31054196069717493	-0.23439677825329192	0.8329157404553095	0.282864877793285	-0.3223819146783382	1.0830719359579526	0.08933328794380228	0.6382089450320438	0.9790674923843716	0.10444597677462837	0.2095583779982882	0.9885819192365728	0.08768370977524878	-0.24188491574845522	1.004099721875427	0.1092366263368415	-0.21215081338487424	0.8249152803749343	0.04887723886005279	-0.2359763679208922	0.8683070760358057	0.0961855647806186	-0.3068906331389688	1.0506750202626929	0.19450485885522287	1.238212579353802	0.97824962334108	0.20231886271286847	1.5008355721964421	0.9078817561997511	0.18704454209439758	1.371143839028891	0.83847395654125	0.3375466970753593	1.1614273475191421	0.9392673606003188	0.39439571512337657	0.9233936496197029	0.8758249968320095	0.2345843624425245	0.753391490979124	0.780436966933079	0.20124093630136033	0.6446507823125409	0.7887716132486366	0.18858010397579275	0.640650689732422	0.7971710289390822	0.1780953460812825	0.6445534438947866	0.7985665650891942	0.0397713919154195	1.160988339369389	0.9770635643603358	0.009644368070924664	0.9236346634082846	0.9069937326134472	0.12699999603495332	0.7619144391353408	0.7368280896657518	0.21341502549785427	0.6874389063362841	0.7616426069286434	0.21329039606468814	0.6589033058106653	0.7595371519421593	0.17925243428020424	0.6443348944739783	0.7870545638870574	
3	0.05	0.30980958433325334	0.6613425472546741	0.9296013090637992	0.2829847075732249	0.21651900096850274	0.9530070558133361	0.3060850664656515	-0.2231461589622112	0.9835136804807891	0.24354052567239126	-0.20138457003658417	0.7920253466804738	0.3107301962623128	-0.23418270656987006	0.8328050301069231	0.2831427753130224	-0.3225457007612531	1.0840797037278327	0.09063600411596871	0.6393288973626934	0.9770621596089804	0.10437886827642506	0.2100532081578334	0.9884547813433455	0.08770794148909596	-0.242204409608704	1.0041511913808867	0.11063152572743343	-0.21139909405286647	0.8227667471742125	0.04894481869729329	-0.23670027421555556	0.8678870251634584	0.09544085070401698	-0.3065836244642156	1.0500161851664591	0.19464286921110852	1.2382967299933247	0.9777403826174627	0.2036237169664061	1.5016807432669237	0.9067035684430054	0.18702075373774601	1.3711497066796123	0.8384283787038824	0.3383372825541377	1.1607054470883793	0.9392894527701348	0.39516333406230525	0.9227883524282205	0.8777188814508351	0.2345177741421107	0.7521542481091748	0.7802170557926198	0.20156876528198786	0.644856044294921	0.7886337357115424	0.1880354947971671	0.6397491346086672	0.7996234617564901	0.17815044491602525	0.6446017265662589	0.7987448027667419	0.03978548709054285	1.1603587113671747	0.9769819482898168	0.008896885510268404	0.9224230737454014	0.9090564228597444	0.127050112217025	0.7610475134893175	0.7392665750630544	0.2141068210183913	0.6887008644182059	0.7597991490076748	0.21383571298362802	0.6597848099019976	0.7573986527899771	0.17920812327279287	0.64429482349088	0.7870773350027507	
4	0.0666666666666666	0.3096698790806424	0.6616565946947169	0.9295721539445221	0.28349812251425943	0.21554400540375185	0.9540863429825397	0.3060772353822196	-0.22281191630872516	0.9836847214173068	0.24287136784191102	-0.2003256929835292	0.7905943476331879	0.31079760005866197	-0.23408124552956178	0.8327283326909747	0.28338735172166274	-0.3225426039986371	1.0848094479049737	0.09167539836087427	0.6402585275537358	0.9753915016551227	0.10430461562641413	0.2105880630982364	0.9883063092837414	0.08770326392810904	-0.24221713363450287	1.004191066140473	0.11110511036900823	-0.21118109197470716	0.8220164729658409	0.048967526952764635	-0.23731558755636184	0.867821049769355	0.09496501817480525	-0.3063127421989966	1.0496330505251785	0.19487784955700252	1.2384440945544823	0.976833718978257	0.20522023960584848	1.5027222306432186	0.9046501777743363	0.18699934992573833	1.3711500691967904	0.8383968133809282	0.3387760707841684	1.1601144634008405	0.9392698313450386	0.39537814366264107	0.9225633054927992	0.8782260592799562	0.23446550590046453	0.751724135183385	0.7801228674051905	0.20181424739239612	0.6449925940555971	0.7886008059019005	0.18775134870473667	0.6393065111949185	0.8009225843456435	0.17839193524846103	0.6446941980800773	0.7989891129138872	0.039772792735511896	1.1601339083237656	0.9769221556101426	0.008180072255384871	0.9216406693809123	0.9110779562001512	0.12687896462178772	0.7605644763948235	0.7406074481292697	0.21432062316800612	0.6890446471560127	0.7592820135553577	0.21405151743817044	0.6601809079755904	0.7565312930237251	0.17919071152979454	0.6442871421314713	0.7870782403401202	
